<?xml version="1.0" ?><svg data-name="Layer 1" id="Layer_1" viewBox="0 0 512 512" xmlns="http://www.w3.org/2000/svg"><defs><style>.cls-1{fill:#f06060;}.cls-2{fill:#ffd34e;}.cls-3{fill:#334d5c;}.cls-4{fill:#046380;}.cls-5{fill:#5c4b51;}</style></defs><title/><rect class="cls-1" height="512" rx="256" ry="256" width="512"/><polygon class="cls-2" points="163 216.32 163 256 163 295.68 366 414.73 366 256 366 97.27 163 216.32"/><rect class="cls-3" height="339.91" rx="4.26" ry="4.26" width="23.82" x="364.28" y="86.05"/><path class="cls-4" d="M77.92,256.67q0,1.3.12,2.62A42.65,42.65,0,0,0,120.69,299h41.83V213H120.69A42.68,42.68,0,0,0,77.92,256.67Z"/><path class="cls-5" d="M117.71,299v95.72a20,20,0,0,0,20,20h0a20,20,0,0,0,20-20V299Z"/><rect class="cls-3" height="97.5" rx="4.88" ry="4.88" width="15.75" x="155.27" y="207.25"/></svg>